<?xml version="1.0" encoding="utf-8"?>
<!-- Generator: Adobe Illustrator 24.2.3, SVG Export Plug-In . SVG Version: 6.00 Build 0)  -->
<svg version="1.1" id="Layer_1" xmlns="http://www.w3.org/2000/svg" xmlns:xlink="http://www.w3.org/1999/xlink" x="0px" y="0px"
	 viewBox="0 0 31.42 31.42" style="enable-background:new 0 0 31.42 31.42;" xml:space="preserve">
<style type="text/css">
	.st0{fill:#FFFFFF;}
	.st1{fill:#FF9663;}
</style>
<path class="st0" d="M24.7,31.42H6.73C3.03,31.42,0,28.4,0,24.7V6.73C0,3.03,3.03,0,6.73,0H24.7c3.7,0,6.73,3.03,6.73,6.73V24.7
	C31.42,28.4,28.4,31.42,24.7,31.42z"/>
<path d="M9.51,10.92c0.24,0.18,0.42,0.39,0.55,0.64c0.13,0.25,0.2,0.51,0.2,0.79c0,0.51-0.21,0.94-0.62,1.31
	c-0.41,0.37-0.91,0.55-1.48,0.55H5.03V7.89h2.96c0.55,0,1.01,0.17,1.4,0.51c0.39,0.34,0.58,0.76,0.58,1.24
	c0,0.21-0.04,0.41-0.12,0.61c-0.08,0.2-0.2,0.37-0.35,0.54l-0.07,0.08L9.51,10.92z M6.13,8.81v1.68h1.86c0.25,0,0.47-0.08,0.66-0.25
	c0.18-0.17,0.28-0.36,0.28-0.59c0-0.23-0.09-0.43-0.28-0.59c-0.18-0.17-0.4-0.25-0.66-0.25H6.13z M8.9,13.01
	c0.21-0.18,0.31-0.4,0.31-0.66c0-0.26-0.1-0.48-0.31-0.67C8.69,11.5,8.45,11.4,8.16,11.4H6.13v1.88h2.03
	C8.45,13.28,8.69,13.19,8.9,13.01z"/>
<path d="M15.82,7.76c0.46,0,0.89,0.08,1.29,0.25c0.39,0.18,0.74,0.41,1.04,0.71c0.3,0.3,0.53,0.64,0.7,1.04
	c0.17,0.4,0.25,0.83,0.25,1.28c0,0.45-0.08,0.88-0.25,1.27c-0.18,0.4-0.41,0.75-0.71,1.05c-0.3,0.3-0.64,0.53-1.04,0.7
	c-0.4,0.17-0.83,0.25-1.28,0.25c-0.45,0-0.87-0.08-1.27-0.25c-0.4-0.17-0.75-0.4-1.04-0.7c-0.3-0.3-0.53-0.65-0.71-1.05
	c-0.17-0.39-0.25-0.81-0.25-1.27c0-0.45,0.08-0.88,0.25-1.28c0.18-0.4,0.41-0.75,0.71-1.04c0.3-0.3,0.64-0.53,1.04-0.71
	C14.96,7.84,15.38,7.76,15.82,7.76L15.82,7.76z M17.39,12.6c0.43-0.43,0.65-0.95,0.65-1.56c0-0.61-0.22-1.13-0.65-1.56
	c-0.43-0.43-0.95-0.65-1.57-0.65c-0.61,0-1.13,0.22-1.56,0.65c-0.43,0.43-0.65,0.96-0.65,1.56c0,0.61,0.22,1.13,0.65,1.56
	c0.43,0.43,0.95,0.65,1.56,0.65C16.44,13.25,16.96,13.03,17.39,12.6z"/>
<polygon points="25.5,7.89 26.6,7.89 26.6,14.21 26.05,14.21 22.47,10.14 22.47,14.21 21.37,14.21 21.37,7.89 21.91,7.89 
	25.5,11.96 "/>
<polygon points="9.71,17.39 10.92,17.39 8.14,23.71 7.63,23.71 4.84,17.39 6.06,17.39 7.87,21.6 "/>
<path d="M15.68,17.26c0.61,0,1.13,0.22,1.56,0.65c0.43,0.43,0.65,0.95,0.65,1.56c0,0.61-0.22,1.13-0.65,1.56
	c-0.43,0.43-0.95,0.65-1.56,0.65c-0.61,0-1.13-0.22-1.56-0.65c-0.43-0.43-0.65-0.95-0.65-1.56c0-0.61,0.22-1.13,0.65-1.56
	C14.56,17.47,15.08,17.26,15.68,17.26L15.68,17.26z M16.58,20.36c0.25-0.25,0.37-0.55,0.37-0.9c0-0.35-0.12-0.64-0.37-0.89
	c-0.25-0.25-0.55-0.37-0.9-0.37c-0.35,0-0.64,0.13-0.89,0.37c-0.25,0.25-0.37,0.55-0.37,0.89c0,0.35,0.12,0.65,0.37,0.9
	c0.25,0.25,0.55,0.37,0.89,0.37C16.04,20.73,16.34,20.61,16.58,20.36z"/>
<polygon points="26.83,17.39 24.29,20.97 24.29,23.71 23.18,23.71 23.18,20.98 20.64,17.39 21.9,17.39 23.73,20 25.57,17.39 "/>
<rect x="12.92" y="22.78" class="st1" width="5.54" height="0.92"/>
</svg>
