<?xml version="1.0" encoding="UTF-8"?>
<svg width="54px" height="16px" viewBox="0 0 54 16" version="1.1" xmlns="http://www.w3.org/2000/svg" xmlns:xlink="http://www.w3.org/1999/xlink">
    <title>icon/carousel_arrow/left</title>
    <g id="Overview" stroke="none" stroke-width="1" fill="none" fill-rule="evenodd">
        <g id="overview_mobile" transform="translate(-30.000000, -1666.000000)" fill="#FFFFFF" fill-rule="nonzero" stroke="#FFFFFF" stroke-width="0.5">
            <g id="dining_carousel_mobile" transform="translate(0.000000, 1353.000000)">
                <g id="carousel_controls" transform="translate(31.000000, 311.000000)">
                    <g id="Group" transform="translate(0.000000, 3.000000)">
                        <g id="arrow.1.1" transform="translate(26.500000, 7.000000) scale(-1, 1) translate(-26.500000, -7.000000) ">
                            <path d="M52.97075,7.14084192 C52.98425,7.10915479 52.98725,7.07525693 52.991,7.04209598 C52.99325,7.02735778 53,7.01483031 53,6.9993552 C53,6.96472043 52.98875,6.93377022 52.97975,6.90208309 C52.976,6.88881871 52.97675,6.87408051 52.9715,6.86081613 C52.952,6.81291698 52.92275,6.77091311 52.88525,6.73554143 L46.13975,0.107773084 C45.9935,-0.0359243615 45.75575,-0.0359243615 45.6095,0.107773084 C45.46325,0.25147053 45.46325,0.485070993 45.6095,0.628768439 L51.71825,6.63090021 L1.20591518,6.63090021 C0.998915179,6.63090021 0.830915179,6.79596805 0.830915179,6.9993552 C0.830915179,7.20274236 0.998915179,7.36781019 1.20591518,7.36781019 L51.71975,7.36781019 L45.6095,13.3714158 C45.46325,13.5151132 45.46325,13.7487137 45.6095,13.8924111 C45.683,13.9638914 45.779,14 45.875,14 C45.971,14 46.067,13.9638914 46.13975,13.8931481 L52.88975,7.26095825 C52.90025,7.25064151 52.904,7.23737713 52.913,7.22706039 C52.93475,7.19979472 52.95725,7.17326596 52.97075,7.14084192 Z" id="Path"></path>
                        </g>
                    </g>
                </g>
            </g>
        </g>
    </g>
</svg>