<?xml version="1.0" encoding="UTF-8"?>
<svg width="39px" height="60px" viewBox="0 0 39 60" version="1.1" xmlns="http://www.w3.org/2000/svg" xmlns:xlink="http://www.w3.org/1999/xlink">
    <title>Hotel Map Pin</title>
    <g id="Overview" stroke="none" stroke-width="1" fill="none" fill-rule="evenodd">
        <g id="overview_V2_desktop" transform="translate(-951.000000, -5373.000000)">
            <g id="getting_here" transform="translate(0.000000, 5129.000000)">
                <g id="Hotel-Map-Pin" transform="translate(951.000000, 244.000000)">
                    <path d="M19.4861996,0.5 C22.0903643,0.5 24.5338165,0.998495966 26.817974,2.02675548 C29.132984,3.0567911 31.1524831,4.42013956 32.9022842,6.20190859 C34.6515628,7.98314555 36.0238002,10.0428586 37.0195275,12.4641888 C38.0161084,14.887595 38.5,17.4225482 38.5,20.152236 C38.5,23.0126787 37.872538,26.1527291 36.6262451,29.5991324 C35.3639686,33.0329571 33.7997332,36.551866 31.9063212,40.1275792 C30.0098292,43.7091088 27.9208735,47.1768981 25.6433418,50.5823436 C23.4783628,53.7275741 21.433925,56.5736269 19.5096568,59.1665139 C17.5926934,56.6239939 15.5780014,53.7798092 13.4421353,50.5862688 C11.1606407,47.2034059 9.07162556,43.706796 7.14747471,40.1249433 C5.22745277,36.5507768 3.63639044,33.0050542 2.37421163,29.5147472 C1.12738054,26.0949078 0.5,22.983822 0.5,20.152236 C0.5,17.4232764 0.983355778,14.8610385 1.98151887,12.4616242 C2.95031715,10.0681684 4.29524059,7.9803811 6.01761743,6.19913358 C7.71208805,4.44674612 9.72979607,3.05675114 12.0696669,2.02762066 C14.407487,0.999392128 16.8529115,0.5 19.4861996,0.5 Z" id="Path" stroke="#FFFFFF" fill="#1C1C1C"></path>
                    <path d="M14.859939,22.6140349 C16.5447295,22.6140349 17.904741,21.2177563 17.904741,19.4880381 C17.904741,17.7583199 16.5447295,16.3620413 14.859939,16.3620413 C13.1751485,16.3620413 11.8151369,17.7583199 11.8151369,19.4880381 C11.8151369,21.2177563 13.1751485,22.6140349 14.859939,22.6140349 Z M14.859939,18.4460392 C15.4181527,18.4460392 15.874873,18.9149387 15.874873,19.4880381 C15.874873,20.0611375 15.4181527,20.530037 14.859939,20.530037 C14.3017253,20.530037 13.845005,20.0611375 13.845005,19.4880381 C13.845005,18.9149387 14.3017253,18.4460392 14.859939,18.4460392 Z M27.0391472,15.3200424 L18.9196751,15.3200424 L18.9196751,23.6560338 L10.8002029,23.6560338 L10.8002029,13.2360445 L8.77033486,13.2360445 L8.77033486,28.8660285 L10.8002029,28.8660285 L10.8002029,25.7400317 L29.0690153,25.7400317 L29.0690153,28.8660285 L31.0988833,28.8660285 L31.0988833,19.4880381 C31.0988833,17.1852205 29.2821514,15.3200424 27.0391472,15.3200424 Z M29.0690153,23.6560338 L20.9495431,23.6560338 L20.9495431,17.4040403 L27.0391472,17.4040403 C28.1555746,17.4040403 29.0690153,18.3418393 29.0690153,19.4880381 L29.0690153,23.6560338 Z" id="bed" fill="#FFFFFF" fill-rule="nonzero"></path>
                </g>
            </g>
        </g>
    </g>
</svg>